<?xml version="1.0" encoding="UTF-8" standalone="no"?>
<!-- Created with Inkscape (http://www.inkscape.org/) -->

<svg
   xmlns:dc="http://purl.org/dc/elements/1.1/"
   xmlns:cc="http://creativecommons.org/ns#"
   xmlns:rdf="http://www.w3.org/1999/02/22-rdf-syntax-ns#"
   xmlns:svg="http://www.w3.org/2000/svg"
   xmlns="http://www.w3.org/2000/svg"
   xmlns:sodipodi="http://sodipodi.sourceforge.net/DTD/sodipodi-0.dtd"
   xmlns:inkscape="http://www.inkscape.org/namespaces/inkscape"
   id="svg3679"
   version="1.1"
   inkscape:version="0.91 r13725"
   width="123.75"
   height="140"
   viewBox="0 0 123.75 140"
   sodipodi:docname="walk6-v1.svg">
  <metadata
     id="metadata3685">
    <rdf:RDF>
      <cc:Work
         rdf:about="">
        <dc:format>image/svg+xml</dc:format>
        <dc:type
           rdf:resource="http://purl.org/dc/dcmitype/StillImage" />
        <dc:title></dc:title>
      </cc:Work>
    </rdf:RDF>
  </metadata>
  <defs
     id="defs3683" />
  <sodipodi:namedview
     pagecolor="#ffffff"
     bordercolor="#666666"
     borderopacity="1"
     objecttolerance="10"
     gridtolerance="10"
     guidetolerance="10"
     inkscape:pageopacity="0"
     inkscape:pageshadow="2"
     inkscape:window-width="1440"
     inkscape:window-height="793"
     id="namedview3681"
     showgrid="false"
     inkscape:zoom="4.2214286"
     inkscape:cx="61.875"
     inkscape:cy="70"
     inkscape:window-x="0"
     inkscape:window-y="1"
     inkscape:window-maximized="1"
     inkscape:current-layer="svg3679" />
  <path
     style="fill:none;fill-rule:evenodd;stroke:#000000;stroke-width:1px;stroke-linecap:butt;stroke-linejoin:miter;stroke-opacity:1"
     d="m 84.827586,18.850575 c -11.865028,-0.09812 -17.489286,6.03876 -17.011494,12.183908 -0.251417,8.319451 2.795395,13.912665 10.574713,15.862069 9.980858,2.004734 18.66365,-6.205965 18.167921,-14.831671 0.389935,-5.872661 -4.173974,-12.7865 -11.73114,-13.214306 z"
     id="path3689"
     inkscape:connector-curvature="0"
     sodipodi:nodetypes="ccccc" />
  <path
     style="fill:none;fill-rule:evenodd;stroke:#000000;stroke-width:1px;stroke-linecap:butt;stroke-linejoin:miter;stroke-opacity:1"
     d="m 69.425287,40.91954 c -0.166476,5.551579 -2.698172,8.859118 -5.315363,10.121945"
     id="path3691"
     inkscape:connector-curvature="0"
     sodipodi:nodetypes="cc" />
  <path
     style="fill:none;fill-rule:evenodd;stroke:#000000;stroke-width:1px;stroke-linecap:butt;stroke-linejoin:miter;stroke-opacity:1"
     d="m 78.16092,46.206897 c -1.065367,2.930453 -3.741435,6.098113 -6.019022,5.998016"
     id="path3693"
     inkscape:connector-curvature="0"
     sodipodi:nodetypes="cc" />
  <path
     style="fill:none;fill-rule:evenodd;stroke:#000000;stroke-width:1px;stroke-linecap:butt;stroke-linejoin:miter;stroke-opacity:1"
     d="M 21.832079,72.218917 C 24.153096,54.329361 50.231547,57.873499 64.179941,50.776591"
     id="path3695"
     inkscape:connector-curvature="0"
     sodipodi:nodetypes="cc" />
  <path
     style="fill:none;fill-rule:evenodd;stroke:#000000;stroke-width:1px;stroke-linecap:butt;stroke-linejoin:miter;stroke-opacity:1"
     d="m 64.625708,53.291324 c 3.840678,-5.024077 9.76272,-1.570021 10.546706,3.72017 1.296191,15.129742 13.568594,14.762045 18.390804,14.482759"
     id="path3697"
     inkscape:connector-curvature="0"
     sodipodi:nodetypes="ccc" />
  <path
     style="fill:none;fill-rule:evenodd;stroke:#000000;stroke-width:1px;stroke-linecap:butt;stroke-linejoin:miter;stroke-opacity:1"
     d="m 93.333334,69.195402 c 10.569656,-7.175025 14.743996,0.04851 13.082446,4.493844 -2.56931,6.863397 -7.155733,8.580826 -13.319334,8.121828"
     id="path3699"
     inkscape:connector-curvature="0"
     sodipodi:nodetypes="ccc" />
  <path
     style="fill:none;fill-rule:evenodd;stroke:#000000;stroke-width:1px;stroke-linecap:butt;stroke-linejoin:miter;stroke-opacity:1"
     d="M 92.873563,81.83908 C 75.879521,83.943521 67.084415,77.459525 64.367816,65.517242"
     id="path3701"
     inkscape:connector-curvature="0"
     sodipodi:nodetypes="cc" />
  <path
     style="fill:none;fill-rule:evenodd;stroke:#000000;stroke-width:1px;stroke-linecap:butt;stroke-linejoin:miter;stroke-opacity:1"
     d="M 71.125503,75.249431 C 67.097633,91.227677 60.447066,104.63114 40.229885,102.06897"
     id="path3703"
     inkscape:connector-curvature="0"
     sodipodi:nodetypes="cc" />
  <path
     style="fill:none;fill-rule:evenodd;stroke:#000000;stroke-width:1px;stroke-linecap:butt;stroke-linejoin:miter;stroke-opacity:1"
     d="m 63.678161,93.793103 c 4.500867,14.496107 9.143147,24.608407 14.252873,20.229887"
     id="path3705"
     inkscape:connector-curvature="0"
     sodipodi:nodetypes="cc" />
  <path
     style="fill:none;fill-rule:evenodd;stroke:#000000;stroke-width:1px;stroke-linecap:butt;stroke-linejoin:miter;stroke-opacity:1"
     d="M 77.471265,114.49677 C 100.36147,88.163803 96.551724,103.44828 96.551724,103.44828 85.310421,136.11514 64.64969,129.80369 67.356322,121.83908"
     id="path3707"
     inkscape:connector-curvature="0"
     sodipodi:nodetypes="ccc" />
  <path
     style="fill:none;fill-rule:evenodd;stroke:#000000;stroke-width:1px;stroke-linecap:butt;stroke-linejoin:miter;stroke-opacity:1"
     d="m 49.655173,102.06897 c 11.973798,17.86067 14.927526,18.88387 17.931034,20"
     id="path3709"
     inkscape:connector-curvature="0"
     sodipodi:nodetypes="cc" />
  <path
     style="fill:none;fill-rule:evenodd;stroke:#000000;stroke-width:1px;stroke-linecap:butt;stroke-linejoin:miter;stroke-opacity:1"
     d="m 47.34932,102.04096 c -9.698094,11.85216 -22.044177,17.10456 -32.176906,13.56321"
     id="path3711"
     inkscape:connector-curvature="0"
     sodipodi:nodetypes="cc" />
  <path
     style="fill:none;fill-rule:evenodd;stroke:#000000;stroke-width:1px;stroke-linecap:butt;stroke-linejoin:miter;stroke-opacity:1"
     d="m 33.563218,97.931034 c -4.21282,4.143796 -10.014586,11.162906 -14.447751,8.693626 -3.142193,-8.341489 -8.324735,-3.51886 -8.770639,-3.16938 -12.7755268,26.03207 9.921324,29.34612 16.530719,25.69811 8.218775,-4.11923 -0.591601,-9.60669 -5.754128,-7.5722 -0.04412,-1.76246 -1.620905,-4.23557 -5.956007,-5.99802"
     id="path3715"
     inkscape:connector-curvature="0"
     sodipodi:nodetypes="cccccc" />
  <path
     style="fill:none;fill-rule:evenodd;stroke:#000000;stroke-width:1px;stroke-linecap:butt;stroke-linejoin:miter;stroke-opacity:1"
     d="m 25.85215,71.257366 c -11.106079,3.358605 -7.386453,9.689619 -2.152985,11.696132 7.741037,2.439728 14.541301,-7.046627 6.791528,-11.919015"
     id="path3717"
     inkscape:connector-curvature="0"
     sodipodi:nodetypes="ccc" />
  <path
     style="fill:none;fill-rule:evenodd;stroke:#000000;stroke-width:1px;stroke-linecap:butt;stroke-linejoin:miter;stroke-opacity:1"
     d="m 29.160394,71.515258 c 7.219865,-1.938145 13.209995,-5.514142 24.883599,-5.782135"
     id="path3719"
     inkscape:connector-curvature="0"
     sodipodi:nodetypes="cc" />
  <path
     style="fill:none;fill-rule:evenodd;stroke:#000000;stroke-width:1px;stroke-linecap:butt;stroke-linejoin:miter;stroke-opacity:1"
     d="M 60.91954,55.632184 C 57.526583,60.734319 54.83781,66.89273 50.344828,70.344828 22.394489,91.37743 37.095308,99.728787 33.103448,97.471264"
     id="path3721"
     inkscape:connector-curvature="0"
     sodipodi:nodetypes="ccc" />
  <path
     style="fill:none;fill-rule:evenodd;stroke:#000000;stroke-width:1px;stroke-linecap:butt;stroke-linejoin:miter;stroke-opacity:1"
     d="m 96.537721,74.050995 c 0.927803,3.303282 0.366785,3.696423 -1.135422,4.569695"
     id="path3723"
     inkscape:connector-curvature="0"
     sodipodi:nodetypes="cc" />
</svg>
