<?xml version="1.0" encoding="UTF-8" standalone="no"?>
<!-- Created with Inkscape (http://www.inkscape.org/) -->

<svg
   xmlns:dc="http://purl.org/dc/elements/1.1/"
   xmlns:cc="http://creativecommons.org/ns#"
   xmlns:rdf="http://www.w3.org/1999/02/22-rdf-syntax-ns#"
   xmlns:svg="http://www.w3.org/2000/svg"
   xmlns="http://www.w3.org/2000/svg"
   xmlns:sodipodi="http://sodipodi.sourceforge.net/DTD/sodipodi-0.dtd"
   xmlns:inkscape="http://www.inkscape.org/namespaces/inkscape"
   id="svg3915"
   version="1.1"
   inkscape:version="0.91 r13725"
   width="192.5"
   height="208.75"
   viewBox="0 0 192.5 208.75"
   sodipodi:docname="walk3-v1.svg">
  <metadata
     id="metadata3921">
    <rdf:RDF>
      <cc:Work
         rdf:about="">
        <dc:format>image/svg+xml</dc:format>
        <dc:type
           rdf:resource="http://purl.org/dc/dcmitype/StillImage" />
        <dc:title></dc:title>
      </cc:Work>
    </rdf:RDF>
  </metadata>
  <defs
     id="defs3919" />
  <sodipodi:namedview
     pagecolor="#ffffff"
     bordercolor="#666666"
     borderopacity="1"
     objecttolerance="10"
     gridtolerance="10"
     guidetolerance="10"
     inkscape:pageopacity="0"
     inkscape:pageshadow="2"
     inkscape:window-width="1440"
     inkscape:window-height="811"
     id="namedview3917"
     showgrid="false"
     inkscape:zoom="2.9173653"
     inkscape:cx="96.25"
     inkscape:cy="104.375"
     inkscape:window-x="141"
     inkscape:window-y="0"
     inkscape:window-maximized="0"
     inkscape:current-layer="svg3915" />
  <path
     style="fill:none;fill-rule:evenodd;stroke:#000000;stroke-width:1px;stroke-linecap:butt;stroke-linejoin:miter;stroke-opacity:1"
     d="m 127.85509,22.280378 c -17.21937,1.211239 -23.22796,9.434965 -25.02258,21.594827 1.73401,6.121695 0.3557,19.720547 21.59483,21.937603 6.62046,-1.501628 20.56229,-6.435691 21.59483,-19.538177 2.0118,-12.037118 -4.64454,-21.043957 -18.16708,-23.994253 z"
     id="path3925"
     inkscape:connector-curvature="0"
     sodipodi:nodetypes="ccccc" />
  <path
     style="fill:none;fill-rule:evenodd;stroke:#000000;stroke-width:1px;stroke-linecap:butt;stroke-linejoin:miter;stroke-opacity:1"
     d="m 120.65682,65.127258 c -1.57441,6.150627 -6.88422,16.124482 -10.28326,19.538177"
     id="path3927"
     inkscape:connector-curvature="0"
     sodipodi:nodetypes="cc" />
  <path
     style="fill:none;fill-rule:evenodd;stroke:#000000;stroke-width:1px;stroke-linecap:butt;stroke-linejoin:miter;stroke-opacity:1"
     d="m 110.37357,61.699508 c 0.2766,3.854712 0.42324,10.372835 -4.45608,13.368226"
     id="path3929"
     inkscape:connector-curvature="0"
     sodipodi:nodetypes="cc" />
  <path
     style="fill:none;fill-rule:evenodd;stroke:#000000;stroke-width:1px;stroke-linecap:butt;stroke-linejoin:miter;stroke-opacity:1"
     d="M 75.067734,115.85796 C 70.366094,97.364719 91.274222,99.089716 102.14696,92.892036"
     id="path3931"
     inkscape:connector-curvature="0"
     sodipodi:nodetypes="cc" />
  <path
     style="fill:none;fill-rule:evenodd;stroke:#000000;stroke-width:1px;stroke-linecap:butt;stroke-linejoin:miter;stroke-opacity:1"
     d="M 110.03078,83.294335 C 119.03333,112.94331 92.241815,136.30256 91.520936,136.76724"
     id="path3933"
     inkscape:connector-curvature="0"
     sodipodi:nodetypes="cc" />
  <path
     style="fill:none;fill-rule:evenodd;stroke:#000000;stroke-width:1px;stroke-linecap:butt;stroke-linejoin:miter;stroke-opacity:1"
     d="m 108.31691,88.435961 c 4.48419,-7.415703 0.99278,-9.589499 -2.7422,-13.368227 -5.03107,2.368897 -20.550002,8.086593 -30.164201,11.654351 -33.67989,18.969225 -6.570331,40.467485 -9.254926,34.277505"
     id="path3935"
     inkscape:connector-curvature="0"
     sodipodi:nodetypes="cccc" />
  <path
     style="fill:none;fill-rule:evenodd;stroke:#000000;stroke-width:1px;stroke-linecap:butt;stroke-linejoin:miter;stroke-opacity:1"
     d="m 62.727833,119.97126 c -1.912165,7.89139 14.008222,24.34447 23.308702,3.77053 -0.291627,-9.05001 -6.225297,-9.01296 -10.283251,-8.56938"
     id="path3937"
     inkscape:connector-curvature="0"
     sodipodi:nodetypes="ccc" />
  <path
     style="fill:none;fill-rule:evenodd;stroke:#000000;stroke-width:1px;stroke-linecap:butt;stroke-linejoin:miter;stroke-opacity:1"
     d="m 62.042282,119.62849 c -10.318443,12.86558 -3.952496,27.43996 12.339902,33.24918 7.29175,10.73435 0.207645,16.08814 -4.798851,23.3087"
     id="path3941"
     inkscape:connector-curvature="0"
     sodipodi:nodetypes="ccc" />
  <path
     style="fill:none;fill-rule:evenodd;stroke:#000000;stroke-width:1px;stroke-linecap:butt;stroke-linejoin:miter;stroke-opacity:1"
     d="m 58.614532,141.22331 c -10.730318,21.03993 -13.317869,11.22604 -15.082102,-2.74219 -1.394193,-5.25528 -4.452675,-6.34984 -11.311576,2.05665 -12.447779,23.24457 -4.867771,40.95297 0.68555,42.16133 5.673045,-1.96233 7.454565,-5.87042 9.597701,-9.5977 -0.414538,-4.76958 -1.415328,-8.36666 -2.7422,-11.31158"
     id="path3943"
     inkscape:connector-curvature="0"
     sodipodi:nodetypes="cccccc" />
  <path
     style="fill:none;fill-rule:evenodd;stroke:#000000;stroke-width:1px;stroke-linecap:butt;stroke-linejoin:miter;stroke-opacity:1"
     d="m 39.761905,160.41872 c 3.569754,5.70094 9.324954,16.33621 22.623152,3.42775 5.637523,-5.02737 6.859128,-7.31253 10.626027,-11.31157"
     id="path3945"
     inkscape:connector-curvature="0"
     sodipodi:nodetypes="ccc" />
  <path
     style="fill:none;fill-rule:evenodd;stroke:#000000;stroke-width:1px;stroke-linecap:butt;stroke-linejoin:miter;stroke-opacity:1"
     d="M 68.897783,176.87193 C 52.90169,188.27868 58.374961,198.12816 96.662562,192.63957 117.20157,187.47094 111.21829,175.82415 89.464286,177.2147"
     id="path3947"
     inkscape:connector-curvature="0"
     sodipodi:nodetypes="ccc" />
  <path
     style="fill:none;fill-rule:evenodd;stroke:#000000;stroke-width:1px;stroke-linecap:butt;stroke-linejoin:miter;stroke-opacity:1"
     d="m 101.11864,126.82677 c 9.16891,15.97818 16.61618,12.15749 23.99425,7.54105"
     id="path3949"
     inkscape:connector-curvature="0"
     sodipodi:nodetypes="cc" />
  <path
     style="fill:none;fill-rule:evenodd;stroke:#000000;stroke-width:1px;stroke-linecap:butt;stroke-linejoin:miter;stroke-opacity:1"
     d="m 110.71633,105.23194 c -1.2672,6.63159 -0.34632,13.0905 6.51273,16.11042"
     id="path3951"
     inkscape:connector-curvature="0"
     sodipodi:nodetypes="cc" />
  <path
     style="fill:none;fill-rule:evenodd;stroke:#000000;stroke-width:1px;stroke-linecap:butt;stroke-linejoin:miter;stroke-opacity:1"
     d="m 116.88629,120.99959 c 3.22659,-2.52688 7.08438,-3.43164 11.99713,-0.68555 3.09303,3.17836 1.30529,10.22327 -4.1133,14.39656"
     id="path3953"
     inkscape:connector-curvature="0"
     sodipodi:nodetypes="ccc" />
  <path
     style="fill:none;fill-rule:evenodd;stroke:#000000;stroke-width:1px;stroke-linecap:butt;stroke-linejoin:miter;stroke-opacity:1"
     d="m 73.353859,180.64245 9.597701,0.68555 c 23.04516,-9.95012 10.902302,-30.34309 8.226601,-47.30296"
     id="path3955"
     inkscape:connector-curvature="0"
     sodipodi:nodetypes="ccc" />
</svg>
