<?xml version="1.0" encoding="UTF-8" standalone="no"?>
<!-- Created with Inkscape (http://www.inkscape.org/) -->

<svg
   xmlns:dc="http://purl.org/dc/elements/1.1/"
   xmlns:cc="http://creativecommons.org/ns#"
   xmlns:rdf="http://www.w3.org/1999/02/22-rdf-syntax-ns#"
   xmlns:svg="http://www.w3.org/2000/svg"
   xmlns="http://www.w3.org/2000/svg"
   xmlns:sodipodi="http://sodipodi.sourceforge.net/DTD/sodipodi-0.dtd"
   xmlns:inkscape="http://www.inkscape.org/namespaces/inkscape"
   id="svg3427"
   version="1.1"
   inkscape:version="0.91 r13725"
   width="182.5"
   height="186.25"
   viewBox="0 0 182.5 186.25"
   sodipodi:docname="walk2-v1.svg">
  <metadata
     id="metadata3433">
    <rdf:RDF>
      <cc:Work
         rdf:about="">
        <dc:format>image/svg+xml</dc:format>
        <dc:type
           rdf:resource="http://purl.org/dc/dcmitype/StillImage" />
        <dc:title></dc:title>
      </cc:Work>
    </rdf:RDF>
  </metadata>
  <defs
     id="defs3431" />
  <sodipodi:namedview
     pagecolor="#ffffff"
     bordercolor="#666666"
     borderopacity="1"
     objecttolerance="10"
     gridtolerance="10"
     guidetolerance="10"
     inkscape:pageopacity="0"
     inkscape:pageshadow="2"
     inkscape:window-width="1440"
     inkscape:window-height="811"
     id="namedview3429"
     showgrid="false"
     inkscape:zoom="3.2697987"
     inkscape:cx="49.771276"
     inkscape:cy="83.451697"
     inkscape:window-x="17"
     inkscape:window-y="0"
     inkscape:window-maximized="0"
     inkscape:current-layer="layer1" />
  <g
     inkscape:groupmode="layer"
     id="layer1"
     inkscape:label="Layer 1">
    <path
       style="fill:none;fill-rule:evenodd;stroke:#000000;stroke-width:1px;stroke-linecap:butt;stroke-linejoin:miter;stroke-opacity:1"
       d="m 66.976601,132.72988 c -18.339547,24.90797 -20.161217,6.70141 -20.796388,3.97578 -0.296385,-9.84188 -10.583351,-2.57789 -12.233169,0.91749 -24.712369,21.60275 -6.56952,40.79251 -1.529146,38.84031 4.61229,0.54015 8.991053,0.55486 10.398194,-6.11658 1.746311,-2.75246 0.47335,-5.50493 -1.834975,-8.25739 -3.142703,-2.28894 -3.77462,-6.37834 -1.223318,-9.48071"
       id="path3466"
       inkscape:connector-curvature="0"
       sodipodi:nodetypes="ccccccc" />
    <path
       style="fill:none;fill-rule:evenodd;stroke:#000000;stroke-width:1px;stroke-linecap:butt;stroke-linejoin:miter;stroke-opacity:1"
       d="m 39.45197,151.99712 c 16.90339,23.24141 24.505885,7.21238 34.558703,1.52915 3.160237,-3.42558 6.320471,-6.22961 9.480711,-6.42242"
       id="path3468"
       inkscape:connector-curvature="0"
       sodipodi:nodetypes="ccc" />
  </g>
  <g
     inkscape:groupmode="layer"
     id="layer2"
     inkscape:label="Layer 2">
    <path
       style="fill:none;fill-rule:evenodd;stroke:#000000;stroke-width:1px;stroke-linecap:butt;stroke-linejoin:miter;stroke-opacity:1"
       d="m 112.54515,41.592775 c 0.77594,18.796447 14.01486,21.460415 21.10222,22.937193 9.20459,0.4553 21.42392,-4.151631 21.40804,-22.937193 -0.23349,-2.875407 -0.68167,-19.786416 -19.8789,-22.325533 -12.47492,1.075931 -22.32624,6.645843 -22.63136,22.325533 z"
       id="path3452"
       inkscape:connector-curvature="0"
       sodipodi:nodetypes="ccccc" />
    <path
       style="fill:none;fill-rule:evenodd;stroke:#000000;stroke-width:1px;stroke-linecap:butt;stroke-linejoin:miter;stroke-opacity:1"
       d="m 129.67159,65.447455 c -0.11954,4.060128 -0.18714,8.172192 -4.28161,8.257389"
       id="path3454"
       inkscape:connector-curvature="0"
       sodipodi:nodetypes="cc" />
    <path
       style="fill:none;fill-rule:evenodd;stroke:#000000;stroke-width:1px;stroke-linecap:butt;stroke-linejoin:miter;stroke-opacity:1"
       d="m 119.27339,58.107554 c -1.71886,12.575236 -2.7708,12.056794 -3.66995,13.762315"
       id="path3456"
       inkscape:connector-curvature="0"
       sodipodi:nodetypes="cc" />
    <path
       style="fill:none;fill-rule:evenodd;stroke:#000000;stroke-width:1px;stroke-linecap:butt;stroke-linejoin:miter;stroke-opacity:1"
       d="M 119.57922,86.549672 C 126.22655,52.721548 60.413913,89.347604 52.296798,99.700329"
       id="path3458"
       inkscape:connector-curvature="0"
       sodipodi:nodetypes="cc" />
    <path
       style="fill:none;fill-rule:evenodd;stroke:#000000;stroke-width:1px;stroke-linecap:butt;stroke-linejoin:miter;stroke-opacity:1"
       d="m 52.296798,99.700329 c -12.423775,8.256611 -7.634592,20.187461 -4.281609,23.243021 14.582546,5.83733 24.067399,-10.80907 10.704023,-19.57308"
       id="path3460"
       inkscape:connector-curvature="0"
       sodipodi:nodetypes="ccc" />
    <path
       style="fill:none;fill-rule:evenodd;stroke:#000000;stroke-width:1px;stroke-linecap:butt;stroke-linejoin:miter;stroke-opacity:1"
       d="M 64.529967,109.18103 C 90.288834,91.433544 97.815414,92.786535 107.04023,92.360427"
       id="path3462"
       inkscape:connector-curvature="0"
       sodipodi:nodetypes="cc" />
    <path
       style="fill:none;fill-rule:evenodd;stroke:#000000;stroke-width:1px;stroke-linecap:butt;stroke-linejoin:miter;stroke-opacity:1"
       d="m 95.112894,93.583744 c -2.08308,4.721317 -6.68945,8.937966 -12.84483,12.844826 -34.570565,28.83635 0.0846,44.26796 3.36412,40.06363 1.38357,7.85336 27.916806,11.45214 5.81076,22.63136 -20.535247,17.8509 15.993576,13.28038 38.228646,11.00985 18.2776,-6.64589 4.10339,-15.77791 -13.76232,-14.98563"
       id="path3464"
       inkscape:connector-curvature="0"
       sodipodi:nodetypes="cccccc" />
    <path
       style="fill:none;fill-rule:evenodd;stroke:#000000;stroke-width:1px;stroke-linecap:butt;stroke-linejoin:miter;stroke-opacity:1"
       d="m 99.700324,170.34688 c 34.612086,-7.12373 31.675396,-19.18302 1.223316,-33.64122"
       id="path3470"
       inkscape:connector-curvature="0"
       sodipodi:nodetypes="cc" />
    <path
       style="fill:none;fill-rule:evenodd;stroke:#000000;stroke-width:1px;stroke-linecap:butt;stroke-linejoin:miter;stroke-opacity:1"
       d="m 99.700324,137.92898 c 7.676996,-5.72893 27.530646,-13.80714 26.607146,-64.529965"
       id="path3472"
       inkscape:connector-curvature="0"
       sodipodi:nodetypes="cc" />
    <path
       style="fill:none;fill-rule:evenodd;stroke:#000000;stroke-width:1px;stroke-linecap:butt;stroke-linejoin:miter;stroke-opacity:1"
       d="m 126.30746,80.127258 c 3.09882,25.853232 11.02636,29.215822 18.04393,30.277092"
       id="path3474"
       inkscape:connector-curvature="0"
       sodipodi:nodetypes="cc" />
    <path
       style="fill:none;fill-rule:evenodd;stroke:#000000;stroke-width:1px;stroke-linecap:butt;stroke-linejoin:miter;stroke-opacity:1"
       d="m 120.80254,112.54515 c 3.41864,11.51248 10.44807,15.80338 22.01971,11.00985"
       id="path3476"
       inkscape:connector-curvature="0"
       sodipodi:nodetypes="cc" />
    <path
       style="fill:none;fill-rule:evenodd;stroke:#000000;stroke-width:1px;stroke-linecap:butt;stroke-linejoin:miter;stroke-opacity:1"
       d="m 144.04557,109.79269 c 2.30949,-3.9582 12.41556,-7.60725 15.59728,-2.14081 9.9006,14.98101 -15.06159,25.25583 -17.43227,15.90312"
       id="path3478"
       inkscape:connector-curvature="0"
       sodipodi:nodetypes="ccc" />
  </g>
</svg>
