<?xml version="1.0" encoding="UTF-8" standalone="no"?>
<!-- Created with Inkscape (http://www.inkscape.org/) -->

<svg
   xmlns:dc="http://purl.org/dc/elements/1.1/"
   xmlns:cc="http://creativecommons.org/ns#"
   xmlns:rdf="http://www.w3.org/1999/02/22-rdf-syntax-ns#"
   xmlns:svg="http://www.w3.org/2000/svg"
   xmlns="http://www.w3.org/2000/svg"
   xmlns:sodipodi="http://sodipodi.sourceforge.net/DTD/sodipodi-0.dtd"
   xmlns:inkscape="http://www.inkscape.org/namespaces/inkscape"
   id="svg3555"
   version="1.1"
   inkscape:version="0.91 r13725"
   width="118.75"
   height="147.5"
   viewBox="0 0 118.75 147.5"
   sodipodi:docname="walk5-v1.svg">
  <metadata
     id="metadata3561">
    <rdf:RDF>
      <cc:Work
         rdf:about="">
        <dc:format>image/svg+xml</dc:format>
        <dc:type
           rdf:resource="http://purl.org/dc/dcmitype/StillImage" />
        <dc:title></dc:title>
      </cc:Work>
    </rdf:RDF>
  </metadata>
  <defs
     id="defs3559" />
  <sodipodi:namedview
     pagecolor="#ffffff"
     bordercolor="#666666"
     borderopacity="1"
     objecttolerance="10"
     gridtolerance="10"
     guidetolerance="10"
     inkscape:pageopacity="0"
     inkscape:pageshadow="2"
     inkscape:window-width="1440"
     inkscape:window-height="811"
     id="namedview3557"
     showgrid="false"
     inkscape:zoom="4.1288136"
     inkscape:cx="59.375"
     inkscape:cy="73.75"
     inkscape:window-x="6"
     inkscape:window-y="8"
     inkscape:window-maximized="0"
     inkscape:current-layer="svg3555" />
  <path
     style="fill:none;fill-rule:evenodd;stroke:#000000;stroke-width:1px;stroke-linecap:butt;stroke-linejoin:miter;stroke-opacity:1"
     d="m 62.729885,24.704434 c 0.189557,7.061461 4.754347,14.163408 13.563218,14.532019 7.44509,0.731928 15.967285,-6.581551 15.500821,-13.805419 0.110071,-6.864161 -4.127691,-12.889453 -13.563218,-13.805418 -6.542055,-0.6342 -16.070203,4.543653 -15.500821,13.078818 z"
     id="path3565"
     inkscape:connector-curvature="0"
     sodipodi:nodetypes="ccccc" />
  <path
     style="fill:none;fill-rule:evenodd;stroke:#000000;stroke-width:1px;stroke-linecap:butt;stroke-linejoin:miter;stroke-opacity:1"
     d="m 67.573892,35.603448 c 0.698209,2.825671 -1.102586,7.831144 -3.633005,10.656815"
     id="path3567"
     inkscape:connector-curvature="0"
     sodipodi:nodetypes="cc" />
  <path
     style="fill:none;fill-rule:evenodd;stroke:#000000;stroke-width:1px;stroke-linecap:butt;stroke-linejoin:miter;stroke-opacity:1"
     d="m 77.746305,38.994253 c -2.655992,1.838738 -4.752025,3.817467 -4.844006,6.297208"
     id="path3569"
     inkscape:connector-curvature="0"
     sodipodi:nodetypes="cc" />
  <path
     style="fill:none;fill-rule:evenodd;stroke:#000000;stroke-width:1px;stroke-linecap:butt;stroke-linejoin:miter;stroke-opacity:1"
     d="M 55.706076,54.252874 C 34.095696,84.746749 40.892025,91.737184 44.80706,94.700328"
     id="path3571"
     inkscape:connector-curvature="0"
     sodipodi:nodetypes="cc" />
  <path
     style="fill:none;fill-rule:evenodd;stroke:#000000;stroke-width:1px;stroke-linecap:butt;stroke-linejoin:miter;stroke-opacity:1"
     d="m 31.970444,109.95895 c -0.271746,-3.10066 -8.07731,-3.24592 -9.203613,0.4844 -6.404232,25.73249 23.096575,19.23204 30.759441,16.22742 0.119009,-8.60029 -6.685357,-5.43574 -10.656814,-7.02381 -7.219418,-0.32524 -7.900217,-1.15027 -11.625615,-1.9376"
     id="path3573"
     inkscape:connector-curvature="0"
     sodipodi:nodetypes="ccccc" />
  <path
     style="fill:none;fill-rule:evenodd;stroke:#000000;stroke-width:1px;stroke-linecap:butt;stroke-linejoin:miter;stroke-opacity:1"
     d="m 54.252874,94.942529 c -1.110562,7.403961 -3.346402,12.501571 -5.086207,15.500821 -3.954963,4.43919 -12.017769,10.48503 -19.133827,5.57061"
     id="path3575"
     inkscape:connector-curvature="0"
     sodipodi:nodetypes="ccc" />
  <path
     style="fill:none;fill-rule:evenodd;stroke:#000000;stroke-width:1px;stroke-linecap:butt;stroke-linejoin:miter;stroke-opacity:1"
     d="m 54.979475,97.122332 c 16.151613,3.096888 3.777141,5.492598 -2.179803,9.203618 -10.066172,6.45614 14.038502,17.55048 28.095238,8.71921 1.914697,-5.4871 -8.729209,-7.34524 -15.743022,-6.05501"
     id="path3577"
     inkscape:connector-curvature="0"
     sodipodi:nodetypes="cccc" />
  <path
     style="fill:none;fill-rule:evenodd;stroke:#000000;stroke-width:1px;stroke-linecap:butt;stroke-linejoin:miter;stroke-opacity:1"
     d="M 67.089491,87.192118 C 72.10682,92.468003 86.052972,99.87016 66.12069,108.74795"
     id="path3579"
     inkscape:connector-curvature="0"
     sodipodi:nodetypes="cc" />
  <path
     style="fill:none;fill-rule:evenodd;stroke:#000000;stroke-width:1px;stroke-linecap:butt;stroke-linejoin:miter;stroke-opacity:1"
     d="M 68.300492,84.527914 C 66.375578,89.351046 63.357497,97.671036 53.768473,97.122332"
     id="path3583"
     inkscape:connector-curvature="0"
     sodipodi:nodetypes="cc" />
  <path
     style="fill:none;fill-rule:evenodd;stroke:#000000;stroke-width:1px;stroke-linecap:butt;stroke-linejoin:miter;stroke-opacity:1"
     d="m 70.238095,54.252874 c -8.131257,15.271363 4.53364,24.665805 7.26601,20.102626"
     id="path3585"
     inkscape:connector-curvature="0"
     sodipodi:nodetypes="cc" />
  <path
     style="fill:none;fill-rule:evenodd;stroke:#000000;stroke-width:1px;stroke-linecap:butt;stroke-linejoin:miter;stroke-opacity:1"
     d="m 77.261905,74.5977 c 1.831138,-4.113864 8.331455,-5.84581 10.414614,1.211003 -1.139875,9.376902 -11.870136,12.493862 -14.77422,8.477012"
     id="path3587"
     inkscape:connector-curvature="0"
     sodipodi:nodetypes="ccc" />
  <path
     style="fill:none;fill-rule:evenodd;stroke:#000000;stroke-width:1px;stroke-linecap:butt;stroke-linejoin:miter;stroke-opacity:1"
     d="M 74.839901,82.105911 C 56.608082,94.127065 45.987876,56.596353 66.847291,45.533662"
     id="path3589"
     inkscape:connector-curvature="0"
     sodipodi:nodetypes="cc" />
  <path
     style="fill:none;fill-rule:evenodd;stroke:#000000;stroke-width:1px;stroke-linecap:butt;stroke-linejoin:miter;stroke-opacity:1"
     d="m 37.05665,73.8711 c -7.43672,3.59056 -2.874135,13.695024 2.906404,10.414614"
     id="path3593"
     inkscape:connector-curvature="0"
     sodipodi:nodetypes="cc" />
  <path
     style="fill:none;fill-rule:evenodd;stroke:#000000;stroke-width:1px;stroke-linecap:butt;stroke-linejoin:miter;stroke-opacity:1"
     d="m 48.924466,64.909688 c -4.816732,-0.129646 -8.644632,0.894344 -5.812808,9.688013"
     id="path3595"
     inkscape:connector-curvature="0"
     sodipodi:nodetypes="cc" />
  <path
     style="fill:none;fill-rule:evenodd;stroke:#000000;stroke-width:1px;stroke-linecap:butt;stroke-linejoin:miter;stroke-opacity:1"
     d="M 41.900656,91.551724 C 42.776575,105.60839 35.860919,107.05385 29.790641,110.92775"
     id="path3597"
     inkscape:connector-curvature="0"
     sodipodi:nodetypes="cc" />
  <path
     style="fill:none;fill-rule:evenodd;stroke:#000000;stroke-width:1px;stroke-linecap:butt;stroke-linejoin:miter;stroke-opacity:1"
     d="M 35.119047,74.3555 C 26.147152,58.727837 59.288065,45.067451 72.902299,44.56486 c 3.437162,4.606767 -2.242398,21.76398 -4.117406,25.673235"
     id="path3599"
     inkscape:connector-curvature="0"
     sodipodi:nodetypes="ccc" />
</svg>
