<?xml version="1.0" encoding="UTF-8" standalone="no"?>
<!-- Created with Inkscape (http://www.inkscape.org/) -->

<svg
   xmlns:dc="http://purl.org/dc/elements/1.1/"
   xmlns:cc="http://creativecommons.org/ns#"
   xmlns:rdf="http://www.w3.org/1999/02/22-rdf-syntax-ns#"
   xmlns:svg="http://www.w3.org/2000/svg"
   xmlns="http://www.w3.org/2000/svg"
   xmlns:sodipodi="http://sodipodi.sourceforge.net/DTD/sodipodi-0.dtd"
   xmlns:inkscape="http://www.inkscape.org/namespaces/inkscape"
   id="svg3631"
   version="1.1"
   inkscape:version="0.91 r13725"
   width="207.5"
   height="215"
   viewBox="0 0 207.5 215"
   sodipodi:docname="walk1-v2.svg">
  <metadata
     id="metadata3637">
    <rdf:RDF>
      <cc:Work
         rdf:about="">
        <dc:format>image/svg+xml</dc:format>
        <dc:type
           rdf:resource="http://purl.org/dc/dcmitype/StillImage" />
        <dc:title></dc:title>
      </cc:Work>
    </rdf:RDF>
  </metadata>
  <defs
     id="defs3635" />
  <sodipodi:namedview
     pagecolor="#ffffff"
     bordercolor="#666666"
     borderopacity="1"
     objecttolerance="10"
     gridtolerance="10"
     guidetolerance="10"
     inkscape:pageopacity="0"
     inkscape:pageshadow="2"
     inkscape:window-width="1440"
     inkscape:window-height="811"
     id="namedview3633"
     showgrid="false"
     inkscape:zoom="2.8325581"
     inkscape:cx="103.75"
     inkscape:cy="97.422184"
     inkscape:window-x="22"
     inkscape:window-y="0"
     inkscape:window-maximized="0"
     inkscape:current-layer="layer2" />
  <g
     inkscape:groupmode="layer"
     id="layer1"
     inkscape:label="Layer 1">
    <path
       style="fill:none;fill-rule:evenodd;stroke:#000000;stroke-width:1px;stroke-linecap:butt;stroke-linejoin:miter;stroke-opacity:1"
       d="m 139.80296,170.16421 c -0.61218,2.80052 -2.80465,5.4329 -5.29557,6.35468"
       id="path3793"
       inkscape:connector-curvature="0"
       sodipodi:nodetypes="cc" />
  </g>
  <g
     inkscape:groupmode="layer"
     id="layer2"
     inkscape:label="Layer 2">
    <path
       style="fill:none;fill-rule:evenodd;stroke:#000000;stroke-width:1px;stroke-linecap:butt;stroke-linejoin:miter;stroke-opacity:1"
       d="M 132.38916,85.435139 C 144.16387,57.582232 72.417573,74.017491 63.899843,88.259442"
       id="path3641"
       inkscape:connector-curvature="0"
       sodipodi:nodetypes="cc" />
    <path
       style="fill:none;fill-rule:evenodd;stroke:#000000;stroke-width:1px;stroke-linecap:butt;stroke-linejoin:miter;stroke-opacity:1"
       d="m 72.725783,94.96716 c -8.39443,-15.790393 -23.83543,2.247181 -23.3005,9.17898 1.12194,17.52436 28.26668,3.34744 23.3005,-5.29557 32.908787,-16.192726 39.799287,-11.370671 49.072237,-8.472902"
       id="path3645"
       inkscape:connector-curvature="0"
       sodipodi:nodetypes="cccc" />
    <path
       style="fill:none;fill-rule:evenodd;stroke:#000000;stroke-width:1px;stroke-linecap:butt;stroke-linejoin:miter;stroke-opacity:1"
       d="m 76.962233,132.7422 c -15.20844,11.57963 -22.00041,9.74358 -30.36125,10.94417 -3.103057,-6.01375 -7.372933,-4.44319 -12.356319,1.76519 -23.491658,42.73533 23.352689,42.21816 26.830869,32.12644 -0.27266,-2.13445 -0.39695,-6.13101 -3.89246,-6.68538 -13.977904,-2.21684 -8.30248,-9.60615 -9.16994,-8.84829"
       id="path3647"
       inkscape:connector-curvature="0"
       sodipodi:nodetypes="ccccsc" />
    <path
       style="fill:none;fill-rule:evenodd;stroke:#000000;stroke-width:1px;stroke-linecap:butt;stroke-linejoin:miter;stroke-opacity:1"
       d="m 117.56157,81.198686 c -6.26575,6.65022 -10.85327,11.008294 -18.004917,15.886704 -40.54154,20.85895 -20.00133,46.24363 -5.29557,50.83743 10.912227,15.68694 27.899587,33.17803 36.715927,31.7734"
       id="path3649"
       inkscape:connector-curvature="0"
       sodipodi:nodetypes="cccc" />
    <path
       style="fill:none;fill-rule:evenodd;stroke:#000000;stroke-width:1px;stroke-linecap:butt;stroke-linejoin:miter;stroke-opacity:1"
       d="m 128.50575,180.4023 c 3.32849,25.21606 49.64126,-22.35583 41.65845,-34.5977 -13.35778,-7.89324 -25.99857,15.55656 -28.9491,21.18227"
       id="path3651"
       inkscape:connector-curvature="0"
       sodipodi:nodetypes="ccc" />
    <path
       style="fill:none;fill-rule:evenodd;stroke:#000000;stroke-width:1px;stroke-linecap:butt;stroke-linejoin:miter;stroke-opacity:1"
       d="m 139.09688,168.04598 c -7.05718,-4.73658 -18.24077,-19.01482 -22.59442,-34.5977"
       id="path3655"
       inkscape:connector-curvature="0"
       sodipodi:nodetypes="cc" />
    <path
       style="fill:none;fill-rule:evenodd;stroke:#000000;stroke-width:1px;stroke-linecap:butt;stroke-linejoin:miter;stroke-opacity:1"
       d="m 112.97208,134.50739 c 16.97584,-12.72319 28.49278,-23.84472 25.06569,-58.251233"
       id="path3657"
       inkscape:connector-curvature="0"
       sodipodi:nodetypes="cc" />
    <path
       style="fill:none;fill-rule:evenodd;stroke:#000000;stroke-width:1px;stroke-linecap:butt;stroke-linejoin:miter;stroke-opacity:1"
       d="m 142.62725,63.19376 c -1.46656,7.64303 -4.76762,9.792427 -5.29556,11.297208"
       id="path3659"
       inkscape:connector-curvature="0"
       sodipodi:nodetypes="cc" />
    <path
       style="fill:none;fill-rule:evenodd;stroke:#000000;stroke-width:1px;stroke-linecap:butt;stroke-linejoin:miter;stroke-opacity:1"
       d="m 131.33004,55.779968 c 0.55276,6.648323 -1.99994,13.181098 -4.23646,15.180622"
       id="path3661"
       inkscape:connector-curvature="0"
       sodipodi:nodetypes="cc" />
    <path
       style="fill:none;fill-rule:evenodd;stroke:#000000;stroke-width:1px;stroke-linecap:butt;stroke-linejoin:miter;stroke-opacity:1"
       d="m 138.74384,90.73071 c 5.32037,11.56948 11.88933,22.6823 19.06404,19.41707"
       id="path3663"
       inkscape:connector-curvature="0"
       sodipodi:nodetypes="cc" />
    <path
       style="fill:none;fill-rule:evenodd;stroke:#000000;stroke-width:1px;stroke-linecap:butt;stroke-linejoin:miter;stroke-opacity:1"
       d="m 132.38916,114.0312 c 6.42703,4.94934 13.72974,16.058 25.06568,4.94252"
       id="path3665"
       inkscape:connector-curvature="0"
       sodipodi:nodetypes="cc" />
    <path
       style="fill:none;fill-rule:evenodd;stroke:#000000;stroke-width:1px;stroke-linecap:butt;stroke-linejoin:miter;stroke-opacity:1"
       d="m 156.39573,115.79639 c 1.01636,-10.12201 13.66131,-17.73594 18.711,-9.88506 7.61803,11.61183 -22.61125,26.5818 -22.24138,16.59278"
       id="path3667"
       inkscape:connector-curvature="0"
       sodipodi:nodetypes="ccc" />
    <path
       style="fill:none;fill-rule:evenodd;stroke:#000000;stroke-width:1px;stroke-linecap:butt;stroke-linejoin:miter;stroke-opacity:1"
       d="m 126.38752,39.187191 c -0.21851,-9.266012 10.48467,-22.972861 22.24137,-22.594417 12.61797,-0.01478 22.7826,14.105002 22.24138,24.00657 0.95208,9.650265 -7.62627,22.418775 -20.82923,22.594416 -12.82111,1.006778 -24.26763,-5.956599 -23.65352,-24.006569 z"
       id="path3669"
       inkscape:connector-curvature="0"
       sodipodi:nodetypes="ccccc" />
    <path
       style="fill:none;fill-rule:evenodd;stroke:#000000;stroke-width:1px;stroke-linecap:butt;stroke-linejoin:miter;stroke-opacity:1"
       d="m 94.261083,147.92282 c -4.36466,-1.15838 -5.66118,-2.32002 -13.0624,0.35304 -12.67205,7.66609 -41.665164,26.51735 -37.068962,1.41215"
       id="path3671"
       inkscape:connector-curvature="0"
       sodipodi:nodetypes="ccc" />
  </g>
</svg>
