<?xml version="1.0" encoding="UTF-8" standalone="no"?>
<!-- Created with Inkscape (http://www.inkscape.org/) -->

<svg
   xmlns:dc="http://purl.org/dc/elements/1.1/"
   xmlns:cc="http://creativecommons.org/ns#"
   xmlns:rdf="http://www.w3.org/1999/02/22-rdf-syntax-ns#"
   xmlns:svg="http://www.w3.org/2000/svg"
   xmlns="http://www.w3.org/2000/svg"
   xmlns:sodipodi="http://sodipodi.sourceforge.net/DTD/sodipodi-0.dtd"
   xmlns:inkscape="http://www.inkscape.org/namespaces/inkscape"
   id="svg3387"
   version="1.1"
   inkscape:version="0.91 r13725"
   width="103.75"
   height="137.5"
   viewBox="0 0 103.75 137.5"
   sodipodi:docname="walk8-v1.svg">
  <metadata
     id="metadata3393">
    <rdf:RDF>
      <cc:Work
         rdf:about="">
        <dc:format>image/svg+xml</dc:format>
        <dc:type
           rdf:resource="http://purl.org/dc/dcmitype/StillImage" />
        <dc:title></dc:title>
      </cc:Work>
    </rdf:RDF>
  </metadata>
  <defs
     id="defs3391" />
  <sodipodi:namedview
     pagecolor="#ffffff"
     bordercolor="#666666"
     borderopacity="1"
     objecttolerance="10"
     gridtolerance="10"
     guidetolerance="10"
     inkscape:pageopacity="0"
     inkscape:pageshadow="2"
     inkscape:window-width="1440"
     inkscape:window-height="793"
     id="namedview3389"
     showgrid="false"
     inkscape:zoom="4.2981818"
     inkscape:cx="51.875"
     inkscape:cy="68.75"
     inkscape:window-x="0"
     inkscape:window-y="1"
     inkscape:window-maximized="1"
     inkscape:current-layer="svg3387" />
  <path
     style="fill:none;fill-rule:evenodd;stroke:#000000;stroke-width:1px;stroke-linecap:butt;stroke-linejoin:miter;stroke-opacity:1"
     d="m 76.07868,16.518612 c -4.318472,-0.600157 -13.558812,3.885128 -14.192047,10.702201 -0.972971,8.768153 3.800983,15.069736 12.098139,14.65736 -0.785778,-0.599908 8.836501,1.470573 13.95939,-9.771574 1.504885,-5.578317 -0.703631,-15.68835 -11.865482,-15.587987 z"
     id="path3397"
     inkscape:connector-curvature="0"
     sodipodi:nodetypes="ccccc" />
  <path
     style="fill:none;fill-rule:evenodd;stroke:#000000;stroke-width:1px;stroke-linecap:butt;stroke-linejoin:miter;stroke-opacity:1"
     d="m 65.609137,39.086294 c -0.691777,2.948531 -1.13036,5.320554 -4.187817,7.677665"
     id="path3399"
     inkscape:connector-curvature="0"
     sodipodi:nodetypes="cc" />
  <path
     style="fill:none;fill-rule:evenodd;stroke:#000000;stroke-width:1px;stroke-linecap:butt;stroke-linejoin:miter;stroke-opacity:1"
     d="m 73.752115,41.645516 c -3.043824,1.15846 -5.254135,4.502879 -5.816413,6.281726"
     id="path3401"
     inkscape:connector-curvature="0"
     sodipodi:nodetypes="cc" />
  <path
     style="fill:none;fill-rule:evenodd;stroke:#000000;stroke-width:1px;stroke-linecap:butt;stroke-linejoin:miter;stroke-opacity:1"
     d="M 33.967852,79.335871 C 31.900886,78.533407 30.279861,78.215627 32.339256,73.286802"
     id="path3403"
     inkscape:connector-curvature="0"
     sodipodi:nodetypes="cc" />
  <path
     style="fill:none;fill-rule:evenodd;stroke:#000000;stroke-width:1px;stroke-linecap:butt;stroke-linejoin:miter;stroke-opacity:1"
     d="M 33.037225,73.054146 C 31.371579,77.837008 25.875868,61.218607 45.833333,58.164129 51.547078,54.409891 59.051812,46.331981 64.213198,46.996615"
     id="path3405"
     inkscape:connector-curvature="0"
     sodipodi:nodetypes="ccc" />
  <path
     style="fill:none;fill-rule:evenodd;stroke:#000000;stroke-width:1px;stroke-linecap:butt;stroke-linejoin:miter;stroke-opacity:1"
     d="m 61.188663,48.625212 c 9.901353,-4.753985 10.685461,4.923492 9.306261,7.212351 -8.137863,14.58027 -2.602158,18.46117 -0.232657,22.800339 6.330879,-3.665707 11.273142,1.262233 9.538917,7.910321 C 77.327213,89.800232 67.824906,95.715785 63.980542,84.454314 47.690375,76.339796 60.618835,53.748475 61.188664,53.045685"
     id="path3407"
     inkscape:connector-curvature="0"
     sodipodi:nodetypes="cccccc" />
  <path
     style="fill:none;fill-rule:evenodd;stroke:#000000;stroke-width:1px;stroke-linecap:butt;stroke-linejoin:miter;stroke-opacity:1"
     d="m 60.258038,82.12775 c -2.32576,5.325318 -6.453391,11.803942 -12.796109,13.726734"
     id="path3409"
     inkscape:connector-curvature="0"
     sodipodi:nodetypes="cc" />
  <path
     style="fill:none;fill-rule:evenodd;stroke:#000000;stroke-width:1px;stroke-linecap:butt;stroke-linejoin:miter;stroke-opacity:1"
     d="M 49.788494,88.874788 C 48.83254,105.94246 29.527069,122.15625 18.612521,103.76481"
     id="path3411"
     inkscape:connector-curvature="0"
     sodipodi:nodetypes="cc" />
  <path
     style="fill:none;fill-rule:evenodd;stroke:#000000;stroke-width:1px;stroke-linecap:butt;stroke-linejoin:miter;stroke-opacity:1"
     d="m 20.473773,106.32402 c -0.189347,4.78324 3.526217,9.31871 -4.653131,11.86549 -0.494466,0.98893 -16.21775664,-9.34532 3.257192,-29.780035 2.938769,-1.130429 5.815954,-2.712487 6.281727,6.049069 -1.028192,6.114406 10.003052,10.226616 11.167512,-3.95516"
     id="path3413"
     inkscape:connector-curvature="0"
     sodipodi:nodetypes="ccccc" />
  <path
     style="fill:none;fill-rule:evenodd;stroke:#000000;stroke-width:1px;stroke-linecap:butt;stroke-linejoin:miter;stroke-opacity:1"
     d="M 55.837563,52.813029 C 52.293133,58.869755 47.015099,64.348613 41.645516,69.796954 27.588784,84.926599 34.148898,94.47875 35.829103,93.993232"
     id="path3415"
     inkscape:connector-curvature="0"
     sodipodi:nodetypes="ccc" />
  <path
     style="fill:none;fill-rule:evenodd;stroke:#000000;stroke-width:1px;stroke-linecap:butt;stroke-linejoin:miter;stroke-opacity:1"
     d="M 53.510998,92.364636 C 58.177452,115.27939 46.37662,116.05433 43.972081,117.49154"
     id="path3417"
     inkscape:connector-curvature="0"
     sodipodi:nodetypes="cc" />
  <path
     style="fill:none;fill-rule:evenodd;stroke:#000000;stroke-width:1px;stroke-linecap:butt;stroke-linejoin:miter;stroke-opacity:1"
     d="m 41.645516,107.022 c 3.049213,6.52878 -5.739139,7.00538 -9.538917,9.53891"
     id="path3419"
     inkscape:connector-curvature="0"
     sodipodi:nodetypes="cc" />
  <path
     style="fill:none;fill-rule:evenodd;stroke:#000000;stroke-width:1px;stroke-linecap:butt;stroke-linejoin:miter;stroke-opacity:1"
     d="m 34.898477,117.02623 c -3.061859,-0.18663 -6.149382,-0.50157 -8.608291,2.32656 -1.084898,6.30224 23.733228,12.71449 33.502538,0 -2.074268,-6.16029 -9.987368,-2.31115 -16.053299,-1.62859"
     id="path3421"
     inkscape:connector-curvature="0"
     sodipodi:nodetypes="cccc" />
</svg>
