<?xml version="1.0" encoding="UTF-8" standalone="no"?>
<!-- Created with Inkscape (http://www.inkscape.org/) -->

<svg
   xmlns:dc="http://purl.org/dc/elements/1.1/"
   xmlns:cc="http://creativecommons.org/ns#"
   xmlns:rdf="http://www.w3.org/1999/02/22-rdf-syntax-ns#"
   xmlns:svg="http://www.w3.org/2000/svg"
   xmlns="http://www.w3.org/2000/svg"
   xmlns:sodipodi="http://sodipodi.sourceforge.net/DTD/sodipodi-0.dtd"
   xmlns:inkscape="http://www.inkscape.org/namespaces/inkscape"
   id="svg3390"
   version="1.1"
   inkscape:version="0.91 r13725"
   width="115"
   height="118.75"
   viewBox="0 0 115 118.75"
   sodipodi:docname="walk1.svg">
  <metadata
     id="metadata3396">
    <rdf:RDF>
      <cc:Work
         rdf:about="">
        <dc:format>image/svg+xml</dc:format>
        <dc:type
           rdf:resource="http://purl.org/dc/dcmitype/StillImage" />
        <dc:title></dc:title>
      </cc:Work>
    </rdf:RDF>
  </metadata>
  <defs
     id="defs3394" />
  <sodipodi:namedview
     pagecolor="#ffffff"
     bordercolor="#666666"
     borderopacity="1"
     objecttolerance="10"
     gridtolerance="10"
     guidetolerance="10"
     inkscape:pageopacity="0"
     inkscape:pageshadow="2"
     inkscape:window-width="1440"
     inkscape:window-height="811"
     id="namedview3392"
     showgrid="false"
     inkscape:snap-nodes="false"
     inkscape:snap-bbox="false"
     inkscape:zoom="5.1284211"
     inkscape:cx="52.396651"
     inkscape:cy="56.808389"
     inkscape:window-x="0"
     inkscape:window-y="1"
     inkscape:window-maximized="1"
     inkscape:current-layer="svg3390" />
  <path
     style="fill:none;fill-rule:evenodd;stroke:#000000;stroke-width:1px;stroke-linecap:butt;stroke-linejoin:miter;stroke-opacity:1"
     d="M 99.250821,66.102217 Z"
     id="path3404"
     inkscape:connector-curvature="0" />
  <path
     style="fill:none;fill-rule:evenodd;stroke:#000000;stroke-width:1px;stroke-linecap:butt;stroke-linejoin:miter;stroke-opacity:1"
     d="M 84.236453,36.463465 Z"
     id="path3406"
     inkscape:connector-curvature="0" />
  <g
     id="g3412" />
  <path
     id="path3440"
     style="fill:none;fill-rule:evenodd;stroke:#000000;stroke-width:0.84703213px;stroke-linecap:butt;stroke-linejoin:miter;stroke-opacity:1"
     d="m 57.053857,76.012111 c 1.261413,5.381373 3.472122,6.323747 7.522681,7.506372 M 88.983579,27.219888 c -3.831309,0.173635 -10.184805,4.192395 -9.026994,9.954129 -0.168311,3.428024 1.539435,10.29254 10.530657,10.11758 7.1794,-0.139703 8.919573,-6.407299 8.861223,-10.606297 -0.0665,-4.785758 -5.285657,-9.695602 -10.364886,-9.465412 z m -7.523332,15.991987 c 0.254983,2.390155 0.134026,4.943432 -1.831856,7.334019 -0.939242,-0.340332 -2.066474,-0.444925 -4.469125,-0.465833 -1.612002,-0.01403 -3.640178,0.208847 -6.403122,0.802541 -4.821817,0.576199 -12.029916,4.384548 -17.720774,7.505642 -2.57428,1.108125 -4.806579,2.497855 -5.85055,5.874408 -0.849524,2.993577 1.671107,4.731889 1.671107,4.731889 2.062743,0.321633 4.033383,1.096636 6.520334,-0.652167 1.572041,-0.379723 1.725787,-3.066109 2.005999,-5.547507 3.538296,-1.550376 6.913323,-3.260299 10.865548,-4.406623 1.678871,-0.613598 3.061738,-0.883114 4.849227,-0.856479 -0.111374,0.122856 -0.248931,0.263222 -0.334892,0.367763 -1.516062,1.843765 -7.381242,5.955248 -8.693778,7.505642 -1.478875,1.746877 -3.34274,4.406283 -4.680106,7.343558 -0.72707,1.864401 -0.370895,2.789283 -0.286332,3.630502 0.02183,0.217117 -2.169018,3.025526 -1.202011,1.913492 -1.8517,2.246921 -4.677125,3.377958 -6.535653,4.083503 -4.801827,1.596934 -8.724433,-2.124728 -9.529333,-1.142518 -6.387694,5.104497 -5.34861,10.470916 -4.179444,14.849469 4.711193,6.010264 9.260041,3.606378 10.699778,4.079724 2.810277,-1.414246 2.97273,-2.175127 3.176444,-3.589373 -1.276452,-2.299709 -3.383486,-3.458124 -5.014997,-2.775388 -1.448813,-1.196668 -0.725781,-1.740535 -0.837229,-2.937203 2.590496,0.408026 4.485489,0.838293 6.68778,-0.325267 5.145648,-2.421969 5.147011,-3.409645 7.521659,-5.05879 l 4.129209,-1.598544 c 0.910257,-0.187071 1.916585,-0.160617 2.72769,-0.174894 5.028925,5.28809 6.071994,11.354504 15.54398,14.991671 0.98784,2.699828 2.257238,3.593108 3.678781,3.752818 3.718159,-0.28777 19.278689,-12.51609 15.044992,-19.256089 -5.605859,-1.688734 -13.609362,7.626423 -13.373884,10.444481 0,0 -3.618739,-2.082828 -6.590661,-6.482443 -3.332586,-6.062568 -3.345226,-6.116588 -3.605105,-8.332702 -0.165623,-1.412356 5.489976,-2.941585 6.851876,-9.663187 0,0 5.013589,-11.241923 2.675782,-14.359118 -0.450188,-0.600274 -1.230104,-1.728968 -1.940695,-2.273595 -0.01386,-0.265036 -2.535939,-1.182549 -2.071303,-1.31741 -0.334262,-0.203885 -0.632874,-0.367081 -0.936022,-0.505062 2.082474,0.758076 3.826422,2.012796 5.115465,3.932616 0.449432,-2.124211 0.547181,-3.484669 3.008999,-7.180376 -4.438717,-1.153301 -6.049133,-2.26503 -6.687778,-4.24317 z m 4.149303,18.061269 c -0.293243,0.227085 -2.633244,7.446833 -2.476521,8.211748 0.167171,0.81591 1.880579,6.923995 10.19744,5.385691 3.469808,-0.641782 5.291517,-1.765091 7.188441,-3.591006 1.83546,-1.766743 2.12494,-6.407137 -1.840227,-6.363123 -1.541138,0.01711 -2.673758,0.488912 -5.51566,3.58937 -3.677755,0.163182 -7.523333,-6.364466 -7.523333,-7.180376 0,-0.051 -0.01059,-0.06744 -0.03014,-0.0523 z"
     inkscape:connector-curvature="0" />
</svg>
