<?xml version="1.0" encoding="UTF-8" standalone="no"?>
<!-- Created with Inkscape (http://www.inkscape.org/) -->

<svg
   xmlns:dc="http://purl.org/dc/elements/1.1/"
   xmlns:cc="http://creativecommons.org/ns#"
   xmlns:rdf="http://www.w3.org/1999/02/22-rdf-syntax-ns#"
   xmlns:svg="http://www.w3.org/2000/svg"
   xmlns="http://www.w3.org/2000/svg"
   xmlns:sodipodi="http://sodipodi.sourceforge.net/DTD/sodipodi-0.dtd"
   xmlns:inkscape="http://www.inkscape.org/namespaces/inkscape"
   id="svg3387"
   version="1.1"
   inkscape:version="0.91 r13725"
   width="116.25"
   height="137.5"
   viewBox="0 0 116.25 137.5"
   sodipodi:docname="walk7-v1.svg">
  <metadata
     id="metadata3393">
    <rdf:RDF>
      <cc:Work
         rdf:about="">
        <dc:format>image/svg+xml</dc:format>
        <dc:type
           rdf:resource="http://purl.org/dc/dcmitype/StillImage" />
        <dc:title></dc:title>
      </cc:Work>
    </rdf:RDF>
  </metadata>
  <defs
     id="defs3391" />
  <sodipodi:namedview
     pagecolor="#ffffff"
     bordercolor="#666666"
     borderopacity="1"
     objecttolerance="10"
     gridtolerance="10"
     guidetolerance="10"
     inkscape:pageopacity="0"
     inkscape:pageshadow="2"
     inkscape:window-width="1440"
     inkscape:window-height="793"
     id="namedview3389"
     showgrid="false"
     inkscape:zoom="4.2981818"
     inkscape:cx="58.125"
     inkscape:cy="68.75"
     inkscape:window-x="0"
     inkscape:window-y="1"
     inkscape:window-maximized="1"
     inkscape:current-layer="svg3387" />
  <path
     style="fill:none;fill-rule:evenodd;stroke:#000000;stroke-width:1px;stroke-linecap:butt;stroke-linejoin:miter;stroke-opacity:1"
     d="m 68.866328,33.269882 c 0.09067,4.634763 -0.875008,13.50617 13.726735,15.122673 C 88.973298,47.433277 96.6443,45.142866 97.48308,35.596447 97.621451,30.733074 95.284232,20.780811 84.919628,20.241117 76.065171,19.9174 69.037331,26.073429 68.866328,33.269882 Z"
     id="path3397"
     inkscape:connector-curvature="0"
     sodipodi:nodetypes="ccccc" />
  <path
     style="fill:none;fill-rule:evenodd;stroke:#000000;stroke-width:1px;stroke-linecap:butt;stroke-linejoin:miter;stroke-opacity:1"
     d="m 72.356176,46.06599 c -0.07895,2.402722 -0.239257,4.724082 -0.930626,6.514382"
     id="path3399"
     inkscape:connector-curvature="0"
     sodipodi:nodetypes="cc" />
  <path
     style="fill:none;fill-rule:evenodd;stroke:#000000;stroke-width:1px;stroke-linecap:butt;stroke-linejoin:miter;stroke-opacity:1"
     d="m 80.964467,48.392555 c -2.093883,1.938787 -2.530032,2.772418 -2.791878,3.489847"
     id="path3403"
     inkscape:connector-curvature="0"
     sodipodi:nodetypes="cc" />
  <path
     style="fill:none;fill-rule:evenodd;stroke:#000000;stroke-width:1px;stroke-linecap:butt;stroke-linejoin:miter;stroke-opacity:1"
     d="m 74.682741,52.813029 c 2.642753,-0.313468 8.145854,-4.138045 5.583757,14.657361 1.620052,2.369558 0.275128,5.93808 11.400169,10.004229 2.56926,-6.337894 13.516593,-3.663594 12.330793,0.930626 0.24544,7.058143 -10.336321,12.973922 -16.751267,6.747039"
     id="path3405"
     inkscape:connector-curvature="0"
     sodipodi:nodetypes="ccccc" />
  <path
     style="fill:none;fill-rule:evenodd;stroke:#000000;stroke-width:1px;stroke-linecap:butt;stroke-linejoin:miter;stroke-opacity:1"
     d="M 89.340101,84.919627 C 61.122765,83.82719 68.38857,66.417311 69.331641,58.164129"
     id="path3407"
     inkscape:connector-curvature="0"
     sodipodi:nodetypes="cc" />
  <path
     style="fill:none;fill-rule:evenodd;stroke:#000000;stroke-width:1px;stroke-linecap:butt;stroke-linejoin:miter;stroke-opacity:1"
     d="m 71.192893,52.580372 c -2.77528,0.526739 -11.861269,12.345917 -14.65736,17.914552 -15.165369,8.763395 -15.660949,17.526791 -16.983926,26.290186 -7.513391,12.52677 -10.406444,6.57219 -13.726734,2.326565 0.325925,-7.044639 -7.071646,-2.651172 -6.747039,-2.326565 -17.9438611,19.24753 -1.99e-4,29.39117 2.093909,26.52284 3.880132,-3.36266 3.157386,-3.3597 3.722504,-6.04907 -0.572446,-3.17964 -1.723462,-5.196 -3.024534,-7.67767 12.145342,11.14989 19.680338,4.32523 27.686125,-7.445"
     id="path3409"
     inkscape:connector-curvature="0"
     sodipodi:nodetypes="ccccccccc" />
  <path
     style="fill:none;fill-rule:evenodd;stroke:#000000;stroke-width:1px;stroke-linecap:butt;stroke-linejoin:miter;stroke-opacity:1"
     d="m 44.67005,101.90356 c 9.972456,0.78273 16.476675,2.09971 18.379865,5.35109 -2.607108,2.45773 -6.454473,5.10963 -10.236886,6.9797 -16.609556,12.38533 27.621416,6.47296 27.453468,5.11844 5.300908,-5.93175 -9.109988,-6.08367 -16.053299,-5.11844"
     id="path3411"
     inkscape:connector-curvature="0"
     sodipodi:nodetypes="ccccc" />
  <path
     style="fill:none;fill-rule:evenodd;stroke:#000000;stroke-width:1px;stroke-linecap:butt;stroke-linejoin:miter;stroke-opacity:1"
     d="m 64.445855,113.76904 c 12.325429,-3.96151 23.936136,-10.39496 0.465313,-18.845182"
     id="path3413"
     inkscape:connector-curvature="0"
     sodipodi:nodetypes="cc" />
  <path
     style="fill:none;fill-rule:evenodd;stroke:#000000;stroke-width:1px;stroke-linecap:butt;stroke-linejoin:miter;stroke-opacity:1"
     d="M 73.752115,81.662437 C 68.491884,93.833728 60.308193,101.73227 46.996616,102.13621"
     id="path3415"
     inkscape:connector-curvature="0"
     sodipodi:nodetypes="cc" />
  <path
     style="fill:none;fill-rule:evenodd;stroke:#000000;stroke-width:1px;stroke-linecap:butt;stroke-linejoin:miter;stroke-opacity:1"
     d="m 31.873943,74.682742 c -6.851505,2.753247 -6.46129,10.6132 1.395939,11.632824 9.540924,-2.138859 7.144906,-7.472796 6.281726,-11.400169"
     id="path3417"
     inkscape:connector-curvature="0"
     sodipodi:nodetypes="ccc" />
  <path
     style="fill:none;fill-rule:evenodd;stroke:#000000;stroke-width:1px;stroke-linecap:butt;stroke-linejoin:miter;stroke-opacity:1"
     d="M 56.070219,70.494923 C 50.073965,68.002672 42.481394,72.360782 38.388325,75.846024"
     id="path3419"
     inkscape:connector-curvature="0"
     sodipodi:nodetypes="cc" />
  <path
     style="fill:none;fill-rule:evenodd;stroke:#000000;stroke-width:1px;stroke-linecap:butt;stroke-linejoin:miter;stroke-opacity:1"
     d="m 93.527919,78.870558 c -0.183915,1.945448 -0.329765,3.916273 -2.326565,4.653131"
     id="path3421"
     inkscape:connector-curvature="0"
     sodipodi:nodetypes="cc" />
  <path
     style="fill:none;fill-rule:evenodd;stroke:#000000;stroke-width:1px;stroke-linecap:butt;stroke-linejoin:miter;stroke-opacity:1"
     d="M 32.804569,76.07868 C 26.374592,57.435326 56.56626,62.266843 71.42555,52.115059"
     id="path3423"
     inkscape:connector-curvature="0"
     sodipodi:nodetypes="cc" />
</svg>
